<svg width="0" height="0" class="hidden">
  <symbol fill="none" xmlns="http://www.w3.org/2000/svg" viewBox="0 0 24 25" id="location">
    <path d="M16.5 21.4601C19.76 20.6401 22 18.9501 22 17.0001C22 15.7401 21.07 14.5901 19.54 13.7101" stroke="#FF5722" stroke-width="2" stroke-linejoin="round"></path>
    <path d="M6 8C6 6.4087 6.63211 4.88259 7.75732 3.75737C8.88254 2.63215 10.4087 2 12 2C13.5913 2 15.1175 2.63215 16.2427 3.75737C17.3679 4.88259 18 6.4087 18 8C18 14.05 12 17 12 17C12 17 6 14.05 6 8Z" stroke="#FF5722" stroke-width="2" stroke-linejoin="round"></path>
    <path d="M12 9.50012C13.1045 9.50012 14 8.60469 14 7.50012C14 6.39555 13.1045 5.50012 12 5.50012C10.8954 5.50012 9.99997 6.39555 9.99997 7.50012C9.99997 8.60469 10.8954 9.50012 12 9.50012Z" fill="#FF5722"></path>
    <path d="M12 22.0001C6.48 22.0001 2 19.7601 2 17.0001C2 15.7401 2.92997 14.5901 4.46997 13.7101" stroke="#FF5722" stroke-width="2" stroke-linejoin="round"></path>
    <path d="M10.5 25.0001V19.0001L14.5 22.0001L10.5 25.0001Z" fill="#FF5722"></path>
  </symbol>
  <symbol fill="none" xmlns="http://www.w3.org/2000/svg" viewBox="0 0 24 24" id="call">
    <path d="M10.2769 13.69C10.9698 14.4109 11.7151 15.0794 12.5069 15.69C12.8563 15.9581 13.2799 16.1124 13.7198 16.1321C14.1598 16.1517 14.5952 16.0358 14.9671 15.8L15.4969 15.47C15.8795 15.2084 16.3351 15.0743 16.7984 15.0869C17.2617 15.0995 17.7091 15.258 18.077 15.54L20.557 17.54C20.6768 17.634 20.7754 17.7524 20.8463 17.8873C20.9171 18.0222 20.9587 18.1705 20.9681 18.3225C20.9776 18.4746 20.9546 18.627 20.901 18.7696C20.8474 18.9122 20.7644 19.0418 20.6571 19.15V19.15C19.7019 20.1077 18.4712 20.743 17.1373 20.9671C15.8034 21.1912 14.4329 20.9929 13.2171 20.4C11.1546 19.3845 9.27555 18.0327 7.65708 16.4C6.02401 14.7856 4.67207 12.9098 3.65708 10.85C3.06505 9.63303 2.86628 8.26209 3.08847 6.92716C3.31066 5.59224 3.94278 4.35954 4.89707 3.4V3.4C5.00457 3.29215 5.13352 3.20822 5.27573 3.15379C5.41794 3.09935 5.57023 3.07565 5.72226 3.08414C5.8743 3.09264 6.02279 3.13315 6.15805 3.2031C6.29331 3.27305 6.41212 3.37081 6.50693 3.48997L8.50693 5.97996C8.78348 6.33023 8.9455 6.75727 8.97055 7.20286C8.99561 7.64844 8.88261 8.09094 8.64707 8.47001L8.25693 9.07999C8.02243 9.45189 7.90655 9.88624 7.92441 10.3255C7.94227 10.7648 8.09311 11.1883 8.35703 11.54C8.95479 12.3305 9.60629 13.079 10.307 13.78L10.2769 13.69Z" stroke="#FF5722" stroke-width="2" stroke-linejoin="round"></path>
    <path d="M17.657 10C17.657 9.02135 17.2682 8.08282 16.5762 7.39081C15.8842 6.6988 14.9457 6.31 13.967 6.31" stroke="#FF5722" stroke-width="2" stroke-miterlimit="10"></path>
    <path d="M21.967 10C21.967 7.87827 21.1241 5.84343 19.6238 4.34314C18.1235 2.84285 16.0888 2 13.967 2" stroke="#FF5722" stroke-width="2" stroke-miterlimit="10"></path>
  </symbol>
  <symbol fill="none" xmlns="http://www.w3.org/2000/svg" viewBox="0 0 25 24" id="email">
    <path d="M3.99996 13.01V6.28998C3.99193 5.69228 4.22086 5.11577 4.63692 4.68658C5.05299 4.2574 5.62227 4.01053 6.21993 4H21.7797C22.3774 4.01053 22.9467 4.2574 23.3628 4.68658C23.7788 5.11577 24.008 5.69228 24 6.28998V17.72C24.008 18.3177 23.7788 18.8942 23.3628 19.3234C22.9467 19.7526 22.3774 19.9995 21.7797 20.01H13" stroke="#FF5722" stroke-width="2" stroke-miterlimit="10"></path>
    <path d="M11 20.01H3" stroke="#FF5722" stroke-width="2" stroke-miterlimit="10"></path>
    <path d="M8 16.01H0" stroke="#FF5722" stroke-width="2" stroke-miterlimit="10"></path>
    <path d="M3.99988 8L13.9999 12L23.9999 8" stroke="#FF5722" stroke-width="2" stroke-linejoin="round"></path>
  </symbol>
</svg>